/* XPM */
static char *acd437859e12472787f4773da6d75544[] = {
/* columns rows colors chars-per-pixel */
"16 16 68 1 ",
"  c None",
". c #F57739",
"X c #F4783B",
"o c #F58046",
"O c #F58147",
"+ c #F5844D",
"@ c #F6915E",
"# c #F69566",
"$ c #1656A7",
"% c #0C6FBD",
"& c #1072BE",
"* c #346CB2",
"= c #346DB2",
"- c #1978C0",
"; c #0780CA",
": c #0681CB",
"> c #0682CB",
", c #1286CC",
"< c #1387CC",
"1 c #1D8ACD",
"2 c #1D8BCD",
"3 c #0588D0",
"4 c #0689D1",
"5 c #0D8BD1",
"6 c #118DD2",
"7 c #158FD2",
"8 c #168FD2",
"9 c #0E95D9",
"0 c #0899DE",
"q c #3286C6",
"w c #3387C6",
"e c #3D8DC9",
"r c #3E8EC9",
"t c #249EDC",
"y c #2A9FDA",
"u c #2B9FDA",
"i c #309BD5",
"p c #329BD5",
"a c #3D9AD1",
"s c #3D9AD2",
"d c #24A2DE",
"f c #24A3DE",
"g c #2DA2DD",
"h c #30A2DD",
"j c #30A2DE",
"k c #33A3DE",
"l c #009BE2",
"z c #069FE2",
"x c #00A1E7",
"c c #00A2E7",
"v c #02A5E7",
"b c #09A0E2",
"n c #0AAFED",
"m c #1EA6E3",
"M c #1FA6E3",
"N c #1FAEE7",
"B c #27A5E1",
"V c #20AEE7",
"C c #36ACE3",
"Z c #3EAFE4",
"A c #6993C4",
"S c #6994C5",
"D c #69B5DE",
"F c #6AB5DE",
"G c #59C3EA",
"H c #59C3EB",
"J c #F9B08A",
"K c #F9B18B",
/* pixels */
"     qs         ",
"    =&;i        ",
"    $-<4g       ",
"    A%,79d      ",
"   K e;7g0M     ",
"   +  15kBlV    ",
"   @X  6kCzxH   ",
"   #.O DtZbvn   ",
"   #.O DtZbvn   ",
"   @X  6gCzxH   ",
"   +  15kBlN    ",
"   K e;7g0M     ",
"    S%,79d      ",
"    $-,4y       ",
"    =&;p        ",
"     ws         "
};
