/* XPM */
static char *c387175ac6af48ffda4714025b78a63b[] = {
/* columns rows colors chars-per-pixel */
"64 63 150 2 ",
"   c None",
".  c #F46B27",
"X  c #F46D2B",
"o  c #F4702F",
"O  c #F47334",
"+  c #F57739",
"@  c #F57A3D",
"#  c #F57D43",
"$  c #F58046",
"%  c #F5844B",
"&  c #F68750",
"*  c #F68953",
"=  c #F68D59",
"-  c #F6905D",
";  c #F69666",
":  c #F6996A",
">  c #F89A6D",
",  c #F89D72",
"<  c #F5A279",
"1  c #1E4EA0",
"2  c #1C52A2",
"3  c #1B59A7",
"4  c #155DAD",
"5  c #1C5CAA",
"6  c #2856A4",
"7  c #2659A5",
"8  c #295AA6",
"9  c #205DAA",
"0  c #2A5CA8",
"q  c #1B61AF",
"w  c #0C6FBD",
"e  c #1364B3",
"r  c #1F64B0",
"t  c #1F6CB6",
"y  c #146CB8",
"u  c #0E71BD",
"i  c #1474BE",
"p  c #1D72BB",
"a  c #2460AB",
"s  c #2963AD",
"d  c #3766AC",
"f  c #3B67AD",
"g  c #2266B1",
"h  c #226BB5",
"j  c #336AB1",
"k  c #2979BE",
"l  c #2375BC",
"z  c #3371B7",
"x  c #3076BB",
"c  c #397DBE",
"v  c #4B73B2",
"b  c #0976C2",
"n  c #077CC7",
"m  c #0C7CC5",
"M  c #077FC9",
"N  c #177EC5",
"B  c #1A78C0",
"V  c #337FC1",
"C  c #6B89BB",
"Z  c #0584CC",
"A  c #0B84CC",
"S  c #0588CF",
"D  c #0D8ACF",
"F  c #1485CB",
"G  c #1288CE",
"H  c #1A89CD",
"J  c #048CD4",
"K  c #0C8CD2",
"L  c #118DD1",
"P  c #1E8ED0",
"I  c #0790D6",
"U  c #0D91D5",
"Y  c #0494DA",
"T  c #0B95DA",
"R  c #059ADE",
"E  c #0A9ADD",
"W  c #1392D6",
"Q  c #1B95D7",
"!  c #1395D8",
"~  c #139ADB",
"^  c #1E9CDB",
"/  c #268CCD",
"(  c #2E8ACA",
")  c #219BD9",
"_  c #2D95D3",
"`  c #3694D0",
"'  c #359ED8",
"]  c #27A2DE",
"[  c #2CA0DD",
"{  c #3CA0D6",
"}  c #32A5DE",
"|  c #049DE1",
" . c #099EE2",
".. c #06A3E5",
"X. c #09A3E5",
"o. c #03A6E8",
"O. c #03AAEA",
"+. c #0AABEB",
"@. c #1BA1E0",
"#. c #10ABEA",
"$. c #03B0EF",
"%. c #09B2EF",
"&. c #1EB1EB",
"*. c #0BB2F0",
"=. c #1DB7F0",
"-. c #23A4E1",
";. c #2AA5E0",
":. c #2EA9E3",
">. c #35ACE3",
",. c #3BAAE1",
"<. c #3FB0E5",
"1. c #30B6EB",
"2. c #21B8F0",
"3. c #4C88C3",
"4. c #4294CE",
"5. c #599BCF",
"6. c #419DD4",
"7. c #549DD1",
"8. c #6392C5",
"9. c #7E97C2",
"0. c #47A4D8",
"q. c #57A8D7",
"w. c #5AA8D7",
"e. c #59ACDA",
"r. c #7AA1CB",
"t. c #6CA6D2",
"y. c #7AADD5",
"u. c #6CB4DF",
"i. c #70B4DD",
"p. c #7EBBDE",
"a. c #42AFE4",
"s. c #45B1E5",
"d. c #4DB5E6",
"f. c #6BB7E1",
"g. c #68BAE4",
"h. c #3FC0EF",
"j. c #48C2EF",
"k. c #5BC6EE",
"l. c #74C4E7",
"z. c #76CBED",
"x. c #7AC9EA",
"c. c #F4A780",
"v. c #F4AF8B",
"b. c #F6B18F",
"n. c #F4B898",
"m. c #8EA3C8",
"M. c #92ACCE",
"N. c #84B3D7",
"B. c #80B9DC",
"V. c #83CFEA",
/* pixels */
"                                            y.` ` w.                                                                            ",
"                                          V w N N M G                                                                           ",
"                                        x y B N F F A A                                                                         ",
"                                      z e p B N F F G A D                                                                       ",
"                                    j q h p l N F F F G D D                                                                     ",
"                                  f 3 g t l i N F F F G G D K                                                                   ",
"                                v 2 a g t p i F F F F G G G K I                                                                 ",
"                                2 8 a g t p l N N H F F G L K K J                                                               ",
"                              m.1 7 a g t p B F F F F G G G L U U I                                                             ",
"                                1 8 a g t p p N F F G G G G L U U I I                                                           ",
"                                6 7 a g t p i N F F G G G U H W U U T Y                                                         ",
"                                C 2 a g t p B F F F G G G G W Q W U T T Y                                                       ",
"                                  d 5 g l p p N F F F F G K W Q ) T T ~ Y Y                                                     ",
"                                    9 g t p p N F F F F G L L Q ) ) T T T R E                                                   ",
"                                    M.4 t p p F F F F F G G L Q ) ' ^ I T E R  .                                                ",
"                                      8.e p p F F F G F G G W Q ) } ;.~ T E E |  .                                              ",
"                          %             c y B N F F F F G L W Q ) [ } ] Y E E E | X.                                            ",
"                          = @             p i N F F F F G L L Q ) [ } ,.~ E E  . .| X.                                          ",
"                          ; + =             i N F F F G G G W Q ) ' } a.;.R E  . . .| ..                                        ",
"                          ; & X c.          t.b F F G G G K L Q ) ] } ,.,.E E E  . .......                                      ",
"                          ; - # X             4.n F F G G L L Q ) ;.} a.s.@.E  . . .....o.+.                                    ",
"                          ; - = O +             / A F G G G W Q ) ) } ,.s.>.Y  . . .X.o...o.#.                                  ",
"                          ; = ; + X #             F G G G L W Q ) ) } ,.a.s.E  . . . ...o.o.o.1.                                ",
"                          ; = ; % O X ;           p.M G G G L Q ) ' } ,.a.d.@. . . .......o.o.o.z.                              ",
"                          ; = ; = O O X v.          6.Z L L L Q ) [ } ,.a.d.-.Y  . .......o.o.O.+.                              ",
"                          ; = ; ; O O O o             P A L L Q ) [ } ,.a.d.:.|  . .....o.o.O.O.O.k.                            ",
"                          ; * ; > @ O O o #             Z K L Q ) [ ;.,.a.d.>.|  . .......o.O.O.O.*.                            ",
"                          ; = ; , # O O + X =           p.Z W Q ) [ ,.,.a.d.a. . . .....X.O...O.O.O.V.                          ",
"                          ; = ; , % O O O O X c.          0.K Q ) ) } ,.a.d.s.E  . .....o.o.o.O.O.O.j.                          ",
"                          ; = ; , % O O + O O o             L Q ) ' } ,.a.d.d. . . .....X.o.o.O.O.$.2.                          ",
"                          ; = ; , * O O O O + X ,           ' W ) ;.} ,.a.d.d. . . .X...o.o.O.O.O.O.*.                          ",
"                          ; = ; , * o O O O O o &           { W ^ ' } ,.a.d.d. . . .X...X.o.O.O.$.$.$.                          ",
"                          ; * ; , * O O O + O X ;           { W ^ ' } ,.a.d.d. . . .......o.+.O.O.$.%.                          ",
"                          ; = ; , % O O O O O X             W Q ^ ;.} ,.a.d.d. . . . .....o...O.O.O.=.                          ",
"                          ; = ; , % O O O O X :           e.J Q ^ [ ,.,.a.d.a. . ...X...o.o.O.O.$.O.h.                          ",
"                          ; = ; , # O O O O %             S G Q ) ) } ,.a.d.a. . .E ......O.o.O.O.O.x.                          ",
"                          ; - ; : @ + O O +             G D W Q ) ) } ,.a.d.,.R  . .......o.o.O.O.$.                            ",
"                          ; = ; ; + O O X             _ D G W Q ) ' } ,.a.d.;.|  . .......o.o.O.O.j.                            ",
"                          ; = ; = O + . <           q.Z G D G Q ) ;.} ,.a.d.-. .X. .X...O...O.O.O.                              ",
"                          ; = ; % O X *             Z G G G W Q ^ ' } ,.a.d.@.| E X.X.....O.o.o.k.                              ",
"                          ; = ; @ O +             H A G G G W Q ) [ ;.,.a.s. . . . .......o.o.&.                                ",
"                          ; = = O o             ` A F G G G W Q ) [ ,.,.d.>.E E  . .....o.o.o.                                  ",
"                          ; - % . n.          7.m F G G D W W Q ) ' } ,.d.@.R  . . . .....o.                                    ",
"                          ; * X :           N.b F F F G G G G Q ) ) } ,.,.~ T  . . .....o.                                      ",
"                          ; + *             i N F F F F G G W Q ^ [ } a.;.R E  . . .....z.                                      ",
"                          - +             k i N F F F F G G L Q ) [ :.,.~ I E E  . .| x.                                        ",
"                          % n.          3.y B N F F G G G L L Q ) [ ,.;.T E E  .| | z.                                          ",
"                          b.          9.e p B N F F G G G L L Q ) [ ' T T  .E  .| z.                                            ",
"                                      4 t p B N F F F G G K W Q ) ;.) T T T  .| x.                                              ",
"                                    s r h p p F F F F G G G W Q ) ) ~ T T R Y x.                                                ",
"                                  v 3 g t p B N F F G G G G L Q ) Q I T R Y l.                                                  ",
"                                9.2 a g t p B N F F G F G G W Q W T T T Y g.                                                    ",
"                                0 6 a g h p p N F H F G G D W W U U T Y g.                                                      ",
"                                1 8 a g t p B N N F F G G L L L L T Y g.                                                        ",
"                              m.1 8 a g t p B F F F F G G G U U K Y f.                                                          ",
"                                2 8 a g t p p N N F G G G L L U J g.                                                            ",
"                                f 7 9 g h p B F F F F G G G K J f.                                                              ",
"                                  0 3 g h p p N F F F G G G J f.                                                                ",
"                                    s q t p p N F F G G G S u.                                                                  ",
"                                      h y p B F F F G G Z u.                                                                    ",
"                                        h y i N F F F Z f.                                                                      ",
"                                          l u N N m A i.                                                                        ",
"                                            5.( / 6.                                                                            "
};
