/* XPM */
static char *_03552c133f44779e0043952038e596a[] = {
/* columns rows colors chars-per-pixel */
"32 32 211 2 ",
"   c None",
".  c #F46B28",
"X  c #F46E2C",
"o  c #F46E2D",
"O  c #F46F2D",
"+  c #F4702F",
"@  c #F47131",
"#  c #F47132",
"$  c #F47232",
"%  c #F57537",
"&  c #F57638",
"*  c #F4773A",
"=  c #F4783B",
"-  c #F5793C",
";  c #F47B3F",
":  c #F57D42",
">  c #F57F45",
",  c #F58249",
"<  c #F5834A",
"1  c #F5834B",
"2  c #F5844B",
"3  c #F48750",
"4  c #F48954",
"5  c #F48B56",
"6  c #F6905D",
"7  c #F4905E",
"8  c #F6915E",
"9  c #F69260",
"0  c #F69361",
"q  c #F69362",
"w  c #F69463",
"e  c #F79564",
"r  c #F69565",
"t  c #F79768",
"y  c #F7986A",
"u  c #F49D72",
"i  c #F5A279",
"p  c #1550A2",
"a  c #1752A3",
"s  c #1C55A5",
"d  c #135FAF",
"f  c #0B6BB9",
"g  c #1661B0",
"h  c #1762B0",
"j  c #106EBB",
"k  c #136FBB",
"l  c #1571BC",
"z  c #1672BC",
"x  c #1B75BD",
"c  c #2169B3",
"v  c #256BB5",
"b  c #2B6FB7",
"n  c #4875B4",
"m  c #507BB7",
"M  c #5A7CB5",
"N  c #5B7DB6",
"B  c #0778C4",
"V  c #047FCA",
"C  c #107DC6",
"Z  c #137EC6",
"A  c #147FC7",
"S  c #157FC7",
"D  c #5D84BB",
"F  c #678CBF",
"G  c #0580CA",
"H  c #0780CA",
"J  c #0583CD",
"K  c #0784CD",
"L  c #0881CA",
"P  c #0A86CD",
"I  c #0C86CE",
"U  c #1680C7",
"Y  c #1387CC",
"T  c #1F85C9",
"R  c #1189CE",
"E  c #1289CE",
"W  c #1E8CCE",
"Q  c #0487D0",
"!  c #028AD3",
"~  c #0688D0",
"^  c #038CD3",
"/  c #008ED6",
"(  c #028FD6",
")  c #108CD1",
"_  c #118CD1",
"`  c #118DD2",
"'  c #128DD2",
"]  c #128ED2",
"[  c #138ED2",
"{  c #0090D9",
"}  c #0091D9",
"|  c #0095DC",
" . c #0095DD",
".. c #0C97DA",
"X. c #0D97DA",
"o. c #0899DD",
"O. c #0B9ADD",
"+. c #1392D5",
"@. c #1192D6",
"#. c #1292D6",
"$. c #1492D6",
"%. c #1694D7",
"&. c #1794D7",
"*. c #1296D8",
"=. c #1496D9",
"-. c #1E97D8",
";. c #1F98D8",
":. c #1D9EDD",
">. c #1E9FDD",
",. c #258FCE",
"<. c #2A8ACB",
"1. c #2E97D4",
"2. c #2D99D6",
"3. c #2098D8",
"4. c #269FDC",
"5. c #279FDC",
"6. c #2A9FDB",
"7. c #2C9CD8",
"8. c #369ED6",
"9. c #3A9FD7",
"0. c #3C9DD5",
"q. c #29A1DD",
"w. c #2FA2DD",
"e. c #2FA3DD",
"r. c #31A3DE",
"t. c #31A4DE",
"y. c #32A4DE",
"u. c #37A4DC",
"i. c #36A6DE",
"p. c #38A2DA",
"a. c #3DA0D8",
"s. c #0098E0",
"d. c #0099E0",
"f. c #009BE3",
"g. c #009CE3",
"h. c #059CE0",
"j. c #069CE1",
"k. c #079CE1",
"l. c #009FE5",
"z. c #089DE1",
"x. c #099DE1",
"c. c #0C9FE1",
"v. c #0C9FE2",
"b. c #06A0E3",
"n. c #07A0E3",
"m. c #04A4E5",
"M. c #05A4E5",
"N. c #0EA0E2",
"B. c #00A2E8",
"V. c #01A6E8",
"C. c #02A6E8",
"Z. c #00A6EB",
"A. c #04A7E8",
"S. c #00A8EB",
"D. c #00A9EB",
"F. c #01AAEB",
"G. c #02AAEB",
"H. c #07ABEB",
"J. c #05AFEE",
"K. c #06AFEE",
"L. c #0BACEB",
"P. c #18A0E0",
"I. c #1AA0E0",
"U. c #29A7E2",
"Y. c #2AA8E2",
"T. c #30A9E0",
"R. c #34A8E0",
"E. c #35A8E1",
"W. c #36ACE3",
"Q. c #37ACE3",
"!. c #3FAEE2",
"~. c #38AFE4",
"^. c #24B7ED",
"/. c #27B8ED",
"(. c #36B1E6",
"). c #3FB0E5",
"_. c #34B3E8",
"`. c #588DC3",
"'. c #4398CF",
"]. c #4D9CD1",
"[. c #6595C6",
"{. c #639ECE",
"}. c #4DA2D5",
"|. c #5AA7D6",
" X c #71A6D2",
".X c #74A9D1",
"XX c #66B0DA",
"oX c #72B6DB",
"OX c #40ADE3",
"+X c #41ADE3",
"@X c #42AEE3",
"#X c #43AEE3",
"$X c #40B0E5",
"%X c #46B2E5",
"&X c #48B4E5",
"*X c #45B7E8",
"=X c #45B9E8",
"-X c #4ABCE9",
";X c #56C0EA",
":X c #6AC9EC",
">X c #70CBED",
",X c #79CCEB",
"<X c #F3A882",
"1X c #F4A984",
"2X c #F3AF8C",
"3X c #F4B08D",
"4X c #859BC4",
"5X c #8AA0C6",
"6X c #90A4C7",
"7X c #80AFD4",
"8X c #87CFEA",
/* pixels */
"                       X<.|.                                    ",
"                    [.f C V 0.                                  ",
"                  F d x U Y J 9.                                ",
"                5Xp c x U Y E Q p.                              ",
"                M s c x U Y E ` ! u.                            ",
"                6Xa c x U Y E ` +./ i.                          ",
"                  n h x U Y E ` -.*.{ !.                        ",
"                    v z U Y E ` 3.5...| &X                      ",
"              i       j S Y E ` 3.y.:.O.s.*X                    ",
"              < 3X    .XB Y E ` -.Y.R.O.x.h.-X                  ",
"              0 &       '.L E ` -.r.!.P.k.z.B.-X                ",
"              e < ;       W I ` 3.6.@XU.k.n.M.B.8X              ",
"              e 6 X 7       J ` -.w.#XW.k.n.M.V.L.              ",
"              0 e & . 2X    XXQ -.r.@X!.k.n.M.A.Z.>X            ",
"              0 y : @ @       8.%.w.@X%XN.n.M.M.S./.            ",
"              0 y > @ O 4       @.w.@X%XN.n.M.G.S.K.            ",
"              0 y > $ X 3       @.w.@X%XN.n.M.M.G.K.            ",
"              0 t : $ X       a.%.w.@X%Xv.n.M.Z.S./.            ",
"              w e - X <X    oXQ 3.6.@X!.x.n.M.A.S.:X            ",
"              e 8 X 4       J ` 3.U.@XQ.k.n.M.Z.H.              ",
"              e < &       ,.P ` 3.6.+XU.k.z.M.B.,X              ",
"              0 &       ].H E ` 3.y.+XI.z.z.l.-X                ",
"              1 1X    7XB Y E [ 3.6.E...z.f._.                  ",
"              u       k S Y E ` -.R.4.k.f._.                    ",
"                    b z U Y E ` ;.q.X.| (.                      ",
"                  m h x U Y E ` -.=.{ R.                        ",
"                  p c x U Y E ` @./ q.                          ",
"                M s c x U Y E ` ^ q.                            ",
"                4Xp c x S Y E ~ 2.                              ",
"                  D d x S Y P 2.                                ",
"                    `.f S V 2.                                  ",
"                      {.<.}.                                    "
};
